# xmcd CD database file
#
# Track frame offsets:
#	150
#	24112
#	58160
#	90640
#	110062
#	141337
#	167060
#	202015
#	226925
#	247237
#
# Disc length: 3774 seconds
#
# Revision: 0
# Processed by: cddbd v1.5PL3 Copyright (c) Steve Scherf et al.
# Submitted via: CDex 1.51
#
DISCID=8c0ebc0a
DTITLE=Keiji Matsushima - Something like this
DYEAR=1900
DGENRE=Jazz
TTITLE0=bye bye blackbird
TTITLE1=without a song
TTITLE2=rakin' and scrapin'
TTITLE3=I'll keep on loving you
TTITLE4=something like this
TTITLE5=K.G.B. - another broadway
TTITLE6=alone together
TTITLE7=Morgan the pirate
TTITLE8=C.I.A.
TTITLE9=P.S. I love you
EXTD=
EXTT0=
EXTT1=
EXTT2=
EXTT3=
EXTT4=
EXTT5=
EXTT6=
EXTT7=
EXTT8=
EXTT9=
PLAYORDER=
